<svg width="16" height="16" viewBox="0 0 16 16" fill="none" xmlns="http://www.w3.org/2000/svg">
<g clip-path="url(#clip0)">
<path d="M13.8714 3.98806L10.1791 0.141908C10.0921 0.0512615 9.97182 0 9.84615 0H3.38462C2.62114 0 2 0.621138 2 1.38462V14.6154C2 15.3789 2.62114 16 3.38462 16H12.6154C13.3789 16 14 15.3789 14 14.6154V4.30769C14 4.18855 13.9539 4.074 13.8714 3.98806ZM13.0769 14.6154C13.0769 14.8699 12.8699 15.0769 12.6154 15.0769H3.38462C3.13012 15.0769 2.92308 14.8699 2.92308 14.6154V1.38462C2.92308 1.13012 3.13012 0.923077 3.38462 0.923077H9.64942L13.0769 4.49338V14.6154Z" fill="#CCCCCC"/>
<path d="M9.38462 2.46154C9.38462 2.20665 9.17798 2 8.92309 2C8.66819 2 8.46155 2.20665 8.46155 2.46154V5.23077C8.46155 5.48566 8.66819 5.69231 8.92309 5.69231H11.6923C11.9472 5.69231 12.1539 5.48566 12.1539 5.23077C12.1539 4.97588 11.9472 4.76923 11.6923 4.76923H9.38462V2.46154Z" fill="#CCCCCC"/>
<path d="M11.0203 9.756C11.0203 9.6336 10.9717 9.51622 10.8851 9.42966L9.55011 8.09468C9.36989 7.91443 9.07764 7.91443 8.8974 8.09468L8.00004 8.99203L7.10266 8.09465C6.92247 7.91443 6.63023 7.9144 6.44995 8.09465L5.11494 9.42963C5.02838 9.51619 4.97974 9.63357 4.97974 9.75597C4.97974 9.8784 5.02835 9.99575 5.11494 10.0823L6.01232 10.9797L5.11494 11.8771C5.02838 11.9637 4.97974 12.081 4.97974 12.2035C4.97974 12.3259 5.02835 12.4433 5.11494 12.5298L6.44995 13.8648C6.63017 14.045 6.92241 14.045 7.10266 13.8648L8.00004 12.9674L8.89743 13.8648C8.98755 13.955 9.10567 14 9.22377 14C9.34186 14 9.46001 13.955 9.55011 13.8648L10.8851 12.5298C10.9717 12.4433 11.0203 12.3259 11.0203 12.2035C11.0203 12.0811 10.9717 11.9637 10.8851 11.8771L9.98774 10.9798L10.8851 10.0824C10.9717 9.99579 11.0203 9.8784 11.0203 9.756ZM9.00866 11.3061L9.90604 12.2035L9.22377 12.8858L8.32638 11.9884C8.23626 11.8982 8.11814 11.8532 8.00004 11.8532C7.88195 11.8532 7.7638 11.8982 7.6737 11.9884L6.77632 12.8858L6.09404 12.2035L6.99143 11.3061C7.07798 11.2195 7.12663 11.1022 7.12663 10.9797C7.12663 10.8573 7.07801 10.7399 6.99143 10.6534L6.09404 9.75597L6.77632 9.07369L7.6737 9.97108C7.85392 10.1513 8.14617 10.1513 8.32641 9.97108L9.2238 9.07369L9.90607 9.75597L9.00869 10.6534C8.92214 10.7399 8.87349 10.8573 8.87349 10.9797C8.87349 11.1022 8.9221 11.2195 9.00866 11.3061Z" fill="#CCCCCC"/>
</g>
<defs>
<clipPath id="clip0">
<rect width="16" height="16" fill="white"/>
</clipPath>
</defs>
</svg>
