<svg width="18" height="19" viewBox="0 0 18 19" fill="none" xmlns="http://www.w3.org/2000/svg">
<path fill-rule="evenodd" clip-rule="evenodd" d="M4.38266 0.367386C4.14835 0.133072 3.76845 0.133072 3.53413 0.367386C3.29982 0.601701 3.29982 0.9816 3.53413 1.21591L3.88487 1.56665H3.50002C1.64974 1.56665 0.150024 3.06636 0.150024 4.91665C0.150024 5.24802 0.418654 5.51665 0.750024 5.51665C1.0814 5.51665 1.35002 5.24802 1.35002 4.91665C1.35002 3.7291 2.31248 2.76665 3.50002 2.76665H3.88487L3.53413 3.11739C3.29982 3.3517 3.29982 3.7316 3.53413 3.96591C3.76845 4.20023 4.14835 4.20023 4.38266 3.96591L5.75766 2.59091C5.85314 2.49544 5.90971 2.37579 5.92738 2.25167C5.9354 2.1953 5.9354 2.138 5.92738 2.08163C5.92285 2.04973 5.91582 2.01863 5.90648 1.98855C5.87858 1.89848 5.82897 1.81369 5.75766 1.74239L4.38266 0.367386ZM14.4659 15.0341C14.7002 15.2684 14.7002 15.6483 14.4659 15.8827L14.1152 16.2334H14.5C15.6875 16.2334 16.65 15.2709 16.65 14.0834C16.65 13.752 16.9186 13.4834 17.25 13.4834C17.5814 13.4834 17.85 13.752 17.85 14.0834C17.85 15.9337 16.3503 17.4334 14.5 17.4334H14.1152L14.4659 17.7841C14.7002 18.0184 14.7002 18.3983 14.4659 18.6327C14.2316 18.867 13.8517 18.867 13.6174 18.6327L12.2424 17.2577C12.1849 17.2001 12.1415 17.1338 12.1122 17.0631C12.0856 16.9987 12.0706 16.9307 12.0673 16.8622C12.0669 16.8526 12.0667 16.843 12.0667 16.8334C12.0667 16.752 12.0828 16.6745 12.1122 16.6037C12.1415 16.533 12.1849 16.4667 12.2424 16.4091L13.6174 15.0341C13.8517 14.7998 14.2316 14.7998 14.4659 15.0341ZM2.58336 8.26665C1.90181 8.26665 1.35002 8.81844 1.35002 9.49998V15C1.35002 15.6815 1.90181 16.2333 2.58336 16.2333H8.08336C8.7649 16.2333 9.31669 15.6815 9.31669 15V9.49998C9.31669 8.81844 8.7649 8.26665 8.08336 8.26665H2.58336ZM0.150024 9.49998C0.150024 8.1557 1.23907 7.06665 2.58336 7.06665H7.4834V3.99998C7.4834 2.6557 8.57244 1.56665 9.91673 1.56665H15.4167C16.761 1.56665 17.8501 2.6557 17.8501 3.99998V9.49998C17.8501 10.8443 16.761 11.9333 15.4167 11.9333H10.5167V15C10.5167 16.3443 9.42765 17.4333 8.08336 17.4333H2.58336C1.23907 17.4333 0.150024 16.3443 0.150024 15V9.49998ZM10.5167 10.7333H15.4167C16.0983 10.7333 16.6501 10.1815 16.6501 9.49998V3.99998C16.6501 3.31844 16.0983 2.76665 15.4167 2.76665H9.91673C9.23519 2.76665 8.6834 3.31844 8.6834 3.99998V7.14114C9.73733 7.40824 10.5167 8.36278 10.5167 9.49998V10.7333Z" fill="#717171"/>
</svg>
