<svg width="15" height="15" viewBox="0 0 15 15" fill="none" xmlns="http://www.w3.org/2000/svg">
<path d="M1.15313 0.799253L1.15241 0.799549C0.909081 0.900379 0.750035 1.13768 0.750035 1.40179V4.88396C0.750035 5.24382 1.04196 5.53575 1.40182 5.53575H4.884C5.14815 5.53575 5.38546 5.37655 5.48617 5.1333L5.48643 5.13265C5.58603 4.89016 5.5317 4.61029 5.34469 4.42325C5.34468 4.42323 5.34467 4.42322 5.34465 4.42321L4.27318 3.35124C5.18303 2.69912 6.29198 2.32146 7.42861 2.32146C10.2445 2.32146 12.5357 4.61269 12.5357 7.42857C12.5357 10.2444 10.2445 12.5357 7.42861 12.5357C6.06521 12.5357 4.78357 12.0044 3.81849 11.0388L3.81839 11.0387C3.51127 10.7317 3.01449 10.7317 2.70741 11.0387C2.40031 11.3458 2.40022 11.8426 2.70736 12.1497C2.70738 12.1497 2.70739 12.1497 2.70741 12.1498C2.70743 12.1498 2.70744 12.1498 2.70746 12.1498C3.96867 13.4117 5.64633 14.1071 7.42861 14.1071C11.1115 14.1071 14.1072 11.1115 14.1072 7.42857C14.1072 3.74564 11.1115 0.75 7.42861 0.75C5.87143 0.75 4.35857 1.29592 3.15085 2.2294M1.15313 0.799253L3.15085 2.2294M1.15313 0.799253C1.3953 0.699788 1.67591 0.753701 1.86278 0.941241M1.15313 0.799253L1.86295 0.94141M3.15085 2.2294L3.30895 2.38751L3.13217 2.56428L2.97299 2.3715C3.0315 2.32319 3.0908 2.27581 3.15085 2.2294ZM1.86295 0.94141L1.6858 1.11781L1.86258 0.941038L1.86278 0.941241M1.86295 0.94141C1.8629 0.941354 1.86284 0.941297 1.86278 0.941241M1.86295 0.94141L1.86278 0.941241M4.09417 3.17215C4.02615 3.22164 3.95923 3.27259 3.89346 3.32498L4.07137 3.50298L4.09417 3.17215Z" fill="#3B9FF3" stroke="#3B9FF3" stroke-width="0.5"/>
</svg>
